<svg xmlns:dc="http://purl.org/dc/elements/1.1/" xmlns:cc="http://creativecommons.org/ns#" xmlns:rdf="http://www.w3.org/1999/02/22-rdf-syntax-ns#" xmlns:svg="http://www.w3.org/2000/svg" xmlns="http://www.w3.org/2000/svg" xmlns:sodipodi="http://sodipodi.sourceforge.net/DTD/sodipodi-0.dtd" xmlns:inkscape="http://www.inkscape.org/namespaces/inkscape" version="1.1" x="0px" y="0px" viewBox="0 0 32 40"><g transform="translate(0,-1020.3622)"><g transform="translate(-0.1874839,-0.08735)"><g transform="translate(0.18336736,-0.87410704)"><g transform="translate(0.00411797,1.461457)"><g style="" fill="#000000" fill-opacity="1" stroke="none"><g transform="translate(11.499905,-621.93457)"><path style="text-indent:0;text-transform:none;direction:ltr;block-progression:tb;baseline-shift:baseline;color:#000000;enable-background:accumulate;" d="m 15.763672,0.56640625 -0.02344,0.001953 -0.480468,0.0292969 -0.498047,0.0292969 0.06055,0.99804685 0.5,-0.029297 0.464843,-0.029297 0.488282,0.015625 0.5,0.013672 0.0293,-0.99999995 -0.5,-0.0136719 -0.519532,-0.015625 z m 2.117187,0.171875 -0.205078,0.99804685 0.490235,0.1035157 0.07813,0.015625 0.01367,0 0.746094,0.2265624 0.03516,0.013672 0.464844,0.1875 0.371094,-0.9296875 -0.462891,-0.1855468 -0.05273,-0.021484 -0.01953,-0.00977 -0.02148,-0.00977 -0.814453,-0.24609372 -0.02148,-0.009766 -0.02148,-0.009766 -0.0918,-0.0195312 z M 13.689453,0.82421875 13.205078,0.9375 l -0.128906,0.03125 -0.01953,0 -0.02149,0.009766 -0.804687,0.2734375 -0.02149,0.00977 -0.01953,0.00977 -0.01758,0.00977 -0.457031,0.2011719 0.402344,0.9160156 0.457031,-0.2011719 0.002,0 L 13.337891,1.9375 13.441406,1.9140625 13.925781,1.796875 z m 7.171875,0.98632815 -0.527344,0.8554687 0.425782,0.2636719 0.357422,0.21875 0.0059,0 0.425781,0.3164063 0.400391,0.2988281 0.597656,-0.8027344 -0.400391,-0.296875 -0.43164,-0.3222656 -0.01758,-0.011719 -0.01758,-0.011719 -0.394532,-0.2441406 z M 10.740234,1.9589844 10.324219,2.2402344 9.9101562,2.515625 9.8925781,2.5273438 9.875,2.5410156 l -0.3925781,0.3125 -0.390625,0.3125 0.625,0.78125 0.3906251,-0.3105468 0.357422,-0.2890626 0.0098,-0.00977 0.404297,-0.2695312 0.416016,-0.2773438 z M 16,3.0644531 c -2.523439,0 -4.889705,0.5922784 -6.9960938,1.4257813 L 8.2753906,3.9511719 7.9765625,4.3515625 7.484375,5.0175781 7.4726562,5.0351562 7.4609375,5.0546875 7.3710938,5.2011719 C 3.0088313,7.3077565 0.14453125,10.212891 0.14453125,10.212891 c -0.1838923,0.184986 -0.1838923,0.520092 0,0.705078 0,0 2.85915155,2.898362 7.21484375,5.003906 l 0.1464844,0.207031 0.3730468,0.519532 0.011719,0.01758 0.013672,0.01758 0.234375,0.273437 0.3242187,0.38086 0.7324219,-0.625 C 11.111653,17.451344 13.240042,17.969849 15.5,18.039062 l 0,2.123047 c -0.58577,0.207101 -1.007159,0.810379 -1,1.431641 l 0,8.322266 c -0.01121,0.792469 0.707452,1.521363 1.5,1.521363 0.792548,0 1.511207,-0.728894 1.5,-1.521363 l 0,-8.322266 c 0.0072,-0.621262 -0.41423,-1.22454 -1,-1.431641 l 0,-2.123047 c 2.339255,-0.07164 4.53812,-0.624847 6.505859,-1.404296 l 0.601563,0.480468 0.3125,-0.392578 0.246094,-0.308594 0.01367,-0.01562 0.01172,-0.01953 0.238282,-0.359375 c 4.4727,-2.112292 7.425781,-5.101562 7.425781,-5.101562 0.183892,-0.184986 0.183892,-0.520092 0,-0.705078 0,0 -2.95138,-2.9887811 -7.421875,-5.1015629 L 24.328125,4.9511719 24.214844,4.7792969 24.201172,4.7617188 24.1875,4.7441406 23.695312,4.1230469 23.384766,3.7304688 22.613281,4.3417969 C 20.603758,3.5879962 18.371348,3.0644531 16,3.0644531 z m 0,1 c 3.62617,0 6.546872,2.8804469 6.546875,6.4355469 -3e-6,3.537572 -2.892684,6.403607 -6.494141,6.431641 -0.02008,-0.0025 -0.04031,-0.0038 -0.06055,-0.0039 -0.01698,4.39e-4 -0.03394,0.0017 -0.05078,0.0039 C 12.342693,16.900521 9.4531277,14.035639 9.453125,10.5 9.4531277,6.9449 12.37383,4.0644531 16,4.0644531 z M 11.177734,4.7871094 C 9.5148727,6.151429 8.4531267,8.2036547 8.453125,10.5 c 1.8e-6,2.422292 1.1855478,4.568471 3.007813,5.925781 -1.219571,-0.334157 -2.367539,-0.771434 -3.4179692,-1.265625 l -0.013672,-0.01758 -0.00977,0.0078 C 7.6537958,14.977819 7.2988757,14.79953 6.9570268,14.617173 L 7.6152344,14.371094 7.4394531,13.904297 7.2128906,13.294922 7.1308594,13 6.9980469,12.517578 l -0.9628907,0.265625 0.1328126,0.482422 0.085937,0.3125 0.00586,0.02148 0.00781,0.02149 0.2363281,0.632812 0.050781,0.136719 C 3.6168775,12.75241 1.6665337,10.907036 1.3144531,10.566406 1.6660867,10.226153 3.6175841,8.3765464 6.5585938,6.7363281 L 6.4316406,7.0625 6.3046875,7.3925781 6.296875,7.4121094 6.2910156,7.4375 6.1113281,8.0585938 5.9746094,8.5410156 6.9355469,8.8144531 7.0742188,8.3339844 7.2460938,7.7285156 7.3652344,7.4257812 7.5449219,6.9609375 6.7265625,6.6425781 C 7.0830104,6.4473632 7.4522329,6.2575709 7.8359375,6.0722656 L 7.9628906,6.1503906 8.0859375,5.9492188 C 9.041496,5.5018396 10.081851,5.1057305 11.177734,4.7871094 z m 9.644532,0 c 1.029286,0.2992584 2.005807,0.6688078 2.912109,1.0839844 l 0.0332,0.048828 0.0332,-0.021484 c 0.371014,0.1713363 0.728971,0.3492267 1.076172,0.53125 l -0.669922,0.2851563 0.195313,0.4589843 0.11914,0.2792969 0.201172,0.6210938 0.15235,0.474609 0.953125,-0.3066406 -0.154297,-0.4765625 -0.208984,-0.6464844 -0.0078,-0.021484 -0.0078,-0.021484 -0.126953,-0.2949219 -0.0625,-0.1464844 c 3.043959,1.6645645 5.066859,3.5843357 5.425781,3.9316407 -0.400417,0.387394 -2.861979,2.721305 -6.501953,4.482422 L 23.96875,14.90625 23.734375,15.259766 c -0.989899,0.453217 -2.060051,0.854959 -3.195313,1.166015 1.822265,-1.35731 3.007811,-3.503489 3.007813,-5.925781 -2e-6,-2.2963453 -1.061748,-4.348571 -2.724609,-5.7128906 z M 15.546439,4.99997 c -2.034302,0 -4.00331,1.4283595 -4.529838,3.3933595 -0.06801,0.2531069 0.100409,0.5452747 0.353516,0.6132811 0.253107,0.068007 0.545275,-0.1004086 0.613281,-0.3535155 0.410633,-1.5324 1.976511,-2.6531251 3.563041,-2.6531251 0.264156,0.00374 0.507121,-0.2358172 0.507121,-0.5 0,-0.2641827 -0.242965,-0.5037358 -0.507121,-0.5 z m 10.492623,4.3652644 -1,0.037109 0.01953,0.4980468 0.02734,0.7460938 -0.01172,0.208985 -0.02734,0.498047 0.998047,0.05469 0.02734,-0.498047 0.01367,-0.226562 0,-0.02344 0,-0.02344 -0.0293,-0.771485 z m -20.2460932,0.3046875 -0.00195,0.4960941 -0.00195,0.80664 0,0.02344 0.00195,0.02148 0.017578,0.19336 0.044922,0.498046 0.9960938,-0.08789 -0.044922,-0.498047 -0.015625,-0.171875 0.00195,-0.78125 0.00195,-0.5000001 z m 19.1289062,2.5839841 -0.115234,0.486328 -0.0625,0.257813 -0.21875,0.65625 -0.160157,0.472656 0.949219,0.318359 0.158203,-0.474609 0.22461,-0.671875 0.0078,-0.01953 0.0059,-0.02149 0.06641,-0.283203 0.117187,-0.486328 z m -2.744141,4.871094 -0.375,0.339844 -0.04883,0.04492 -0.0039,0 -0.671875,0.49414 -0.0039,0 -0.002,0 -0.425782,0.257813 0.519532,0.855469 0.425781,-0.259766 0.03711,-0.02344 0.01758,-0.0098 0.01953,-0.01367 0.68164,-0.501953 0.01758,-0.01563 0.01563,-0.01367 0.08398,-0.07422 0.375,-0.330078 z m -12.2890621,0.181641 -0.6367188,0.779297 0.3867188,0.316406 0.1132812,0.09375 0.015625,0.01367 0.019531,0.01563 0.6972659,0.478515 0.01953,0.01367 0.01758,0.0098 0.0059,0 0.435547,0.24414 0.490234,-0.871093 -0.402344,-0.22461 -0.0078,-0.0098 -0.65625,-0.447266 -0.0098,-0.0098 -0.103515,-0.08594 z m 9.9609371,1.404297 -0.466797,0.179687 -0.52539,0.201172 -0.466797,0.179687 0.357422,0.933594 0.466797,-0.179687 0.52539,-0.201172 0.466797,-0.179688 z m -7.585937,0.111328 -0.328125,0.945312 0.472656,0.164063 0.566406,0.197265 0.472657,0.164063 0.328125,-0.945313 -0.472657,-0.164062 -0.568359,-0.197266 z" transform="translate(-11.499906,1641.7968)" fill="#000000" fill-opacity="1" fill-rule="nonzero" stroke="none" visibility="visible" display="inline" overflow="visible"/></g></g></g></g></g></g><text x="0" y="47" fill="#000000" font-size="5px" font-weight="bold" font-family="'Helvetica Neue', Helvetica, Arial-Unicode, Arial, Sans-serif">Created by Chameleon Design</text><text x="0" y="52" fill="#000000" font-size="5px" font-weight="bold" font-family="'Helvetica Neue', Helvetica, Arial-Unicode, Arial, Sans-serif">from the Noun Project</text></svg>