<svg xmlns:dc="http://purl.org/dc/elements/1.1/" xmlns:cc="http://creativecommons.org/ns#" xmlns:rdf="http://www.w3.org/1999/02/22-rdf-syntax-ns#" xmlns:svg="http://www.w3.org/2000/svg" xmlns="http://www.w3.org/2000/svg" xmlns:sodipodi="http://sodipodi.sourceforge.net/DTD/sodipodi-0.dtd" xmlns:inkscape="http://www.inkscape.org/namespaces/inkscape" viewBox="0 0 48 60.00000125" version="1.1" x="0px" y="0px"><g transform="translate(0,-1004.3622)"><g transform="translate(-604.00016,-751)"><path style="color:#000000;text-indent:0;text-decoration-line:none;text-transform:none;direction:ltr;block-progression:tb;baseline-shift:baseline;enable-background:accumulate;" d="M 24 0 C 10.75149 0 0 10.749047 0 23.998047 C -3e-005 37.247147 10.75147 48 24 48 C 37.24853 48 48.00003 37.247147 48 23.998047 C 48 10.749047 37.24851 0 24 0 z M 24 1.0078125 C 36.7043 1.0078125 46.992188 11.293247 46.992188 23.998047 C 46.992218 36.702947 36.70432 46.992188 24 46.992188 C 11.29568 46.992188 1.0077825 36.702947 1.0078125 23.998047 C 1.0078125 11.293247 11.2957 1.0078125 24 1.0078125 z M 33.976562 8.9882812 A 0.50004995 0.50004995 0 0 0 33.837891 9.0117188 A 0.50004995 0.50004995 0 0 0 33.494141 9.5117188 L 33.494141 13.511719 A 0.50004995 0.50004995 0 0 0 33.994141 14.011719 L 37.994141 14.011719 A 0.50004995 0.50004995 0 0 0 38.337891 13.136719 L 34.337891 9.1367188 A 0.50004995 0.50004995 0 0 0 33.976562 8.9882812 z M 17.894531 9.0058594 A 0.50004998 0.50004998 0 0 0 17.837891 9.0117188 A 0.50004998 0.50004998 0 0 0 17.494141 9.5117188 L 17.494141 15.042969 C 14.720361 15.324469 12.556641 17.663319 12.556641 20.511719 L 12.556641 30.480469 L 11.775391 30.949219 C 11.444471 31.143219 10.917411 31.418069 10.556641 31.792969 C 9.9881706 32.383869 9.6306306 33.193869 9.5253906 34.042969 C 9.4859906 34.360269 9.4941406 34.735469 9.4941406 34.980469 L 9.4941406 38.511719 L 9.4941406 39.011719 L 9.9941406 39.011719 L 25.994141 39.011719 L 26.494141 39.011719 L 26.494141 38.511719 L 26.494141 36.980469 L 32.244141 36.980469 L 36.994141 36.980469 A 0.50004998 0.50004998 0 0 0 37.494141 36.480469 L 37.494141 32.761719 L 37.494141 22.417969 L 37.494141 16.480469 L 37.494141 15.542969 A 0.50004998 0.50004998 0 0 0 36.931641 15.011719 A 0.50004998 0.50004998 0 0 0 36.494141 15.542969 L 36.494141 16.480469 L 36.494141 22.417969 L 36.494141 32.761719 L 36.494141 35.980469 L 32.244141 35.980469 L 26.494141 35.980469 L 26.494141 34.511719 C 26.494141 34.488719 26.494511 34.447016 26.494141 34.416016 C 26.480941 33.327716 26.021321 32.310166 25.244141 31.634766 C 25.008161 31.429666 24.720991 31.249366 24.525391 31.134766 L 23.556641 30.572266 L 23.556641 28.009766 L 34.494141 28.009766 L 34.494141 27.009766 L 23.556641 27.009766 L 23.556641 25.009766 L 34.494141 25.009766 L 34.494141 24.009766 L 23.556641 24.009766 L 23.556641 22.009766 L 34.494141 22.009766 L 34.494141 21.009766 L 23.556641 21.009766 L 23.556641 20.509766 C 23.556641 19.986766 23.504941 19.491766 23.369141 19.009766 L 34.494141 19.009766 L 34.494141 18.009766 L 22.931641 18.009766 C 22.528441 17.216466 21.959551 16.521066 21.244141 16.009766 L 25.462891 16.009766 L 25.462891 15.009766 L 20.556641 15.009766 L 20.556641 15.572266 C 20.516341 15.550266 20.475141 15.531719 20.431641 15.511719 C 20.325551 15.461719 20.202071 15.431719 20.087891 15.386719 C 19.589731 15.190219 19.052381 15.084369 18.494141 15.042969 L 18.494141 10.011719 L 30.994141 10.011719 A 0.50004998 0.50004998 0 1 0 30.994141 9.0117188 L 17.994141 9.0117188 A 0.50004998 0.50004998 0 0 0 17.894531 9.0058594 z M 34.494141 10.699219 L 36.806641 13.011719 L 34.494141 13.011719 L 34.494141 10.699219 z M 26.962891 11.511719 L 26.962891 12.011719 L 26.962891 16.011719 L 26.962891 16.511719 L 27.462891 16.511719 L 31.462891 16.511719 L 31.962891 16.511719 L 31.962891 16.011719 L 31.962891 12.011719 L 31.962891 11.511719 L 31.462891 11.511719 L 27.462891 11.511719 L 26.962891 11.511719 z M 20.462891 12.011719 L 20.462891 13.011719 L 25.462891 13.011719 L 25.462891 12.011719 L 20.462891 12.011719 z M 27.962891 12.511719 L 30.962891 12.511719 L 30.962891 15.511719 L 27.962891 15.511719 L 27.962891 12.511719 z M 18.056641 16.011719 C 18.644931 16.011719 19.231871 16.122119 19.744141 16.324219 C 19.833741 16.359219 19.903291 16.374969 19.994141 16.417969 C 20.095481 16.465969 20.211041 16.519919 20.306641 16.574219 C 21.667021 17.345919 22.556641 18.823019 22.556641 20.511719 L 22.556641 29.980469 L 21.181641 29.167969 C 20.748871 28.914769 20.494141 28.450819 20.494141 27.949219 L 20.494141 26.636719 C 20.526041 26.595719 20.557391 26.553719 20.587891 26.511719 C 21.195091 25.676419 21.556641 24.632419 21.556641 23.574219 L 21.556641 21.292969 C 21.556531 21.309969 21.556641 21.312719 21.556641 21.261719 L 21.556641 20.261719 A 0.50004995 0.50004995 0 0 0 21.181641 19.792969 C 20.600811 19.640669 20.105481 19.451319 19.744141 19.136719 C 19.543811 18.962419 19.281701 18.855469 19.025391 18.855469 C 18.769081 18.855369 18.506981 18.962419 18.306641 19.136719 C 18.138841 19.282619 17.594601 19.403869 16.962891 19.417969 C 16.331181 19.431969 15.637951 19.386719 15.087891 19.386719 A 0.50004995 0.50004995 0 0 0 14.587891 19.824219 L 14.556641 20.105469 A 0.50004995 0.50004995 0 0 0 14.556641 20.167969 L 14.556641 21.261719 L 14.556641 21.292969 L 14.556641 23.574219 C 14.556641 24.593819 14.924391 25.598669 15.494141 26.417969 L 15.494141 27.511719 C 15.494141 28.299719 15.080241 29.019669 14.400391 29.417969 L 13.556641 29.917969 L 13.556641 20.511719 C 13.556641 18.010019 15.555311 16.011719 18.056641 16.011719 z M 19.025391 19.853516 L 19.025391 19.855469 C 19.043691 19.855469 19.061991 19.863766 19.087891 19.884766 C 19.526261 20.266366 20.045831 20.413866 20.556641 20.572266 L 20.556641 21.259766 C 20.556641 21.222766 20.556891 21.250016 20.556641 21.291016 L 20.556641 23.572266 C 20.556641 24.393166 20.252461 25.290966 19.775391 25.947266 C 19.298321 26.603566 18.682211 26.978516 18.056641 26.978516 C 17.431081 26.978516 16.814971 26.603566 16.337891 25.947266 C 15.860811 25.290966 15.556641 24.393066 15.556641 23.572266 L 15.556641 21.291016 L 15.556641 21.259766 L 15.556641 20.384766 C 15.992261 20.401766 16.459511 20.428016 16.994141 20.416016 C 17.703041 20.400016 18.424361 20.353066 18.962891 19.884766 C 18.988791 19.861766 19.007091 19.853516 19.025391 19.853516 z M 16.494141 27.449219 C 16.953071 27.776919 17.470331 27.980469 18.056641 27.980469 C 18.574461 27.980469 19.066681 27.837019 19.494141 27.574219 L 19.494141 27.949219 C 19.494141 28.804219 19.943921 29.610869 20.681641 30.042969 L 21.556641 30.542969 C 21.539941 32.467269 19.985091 34.011719 18.056641 34.011719 C 16.117731 34.011719 14.556641 32.450619 14.556641 30.511719 C 14.556641 30.493719 14.551641 30.469219 14.556641 30.449219 L 14.900391 30.261719 C 15.885181 29.684719 16.494141 28.653119 16.494141 27.511719 L 16.494141 27.449219 z M 30.462891 30.011719 L 30.462891 31.011719 L 34.494141 31.011719 L 34.494141 30.011719 L 30.462891 30.011719 z M 13.619141 31.011719 C 13.872211 33.253719 15.748641 35.011719 18.056641 35.011719 C 20.332921 35.011719 22.199851 33.303069 22.494141 31.105469 L 23.994141 31.980469 C 24.177701 32.087969 24.492471 32.303819 24.587891 32.386719 C 25.131071 32.858719 25.484211 33.601569 25.494141 34.417969 C 25.494351 34.434969 25.494141 34.487719 25.494141 34.511719 L 25.494141 38.011719 L 23.994141 38.011719 L 23.994141 36.511719 L 22.994141 36.511719 L 22.994141 38.011719 L 12.994141 38.011719 L 12.994141 36.511719 L 11.994141 36.511719 L 11.994141 38.011719 L 10.494141 38.011719 L 10.494141 34.980469 C 10.494141 34.727369 10.503191 34.344769 10.525391 34.167969 C 10.605191 33.524569 10.867041 32.936119 11.275391 32.511719 C 11.438021 32.342719 11.984801 31.981669 12.306641 31.792969 L 13.619141 31.011719 z " transform="translate(604.00016,1755.3622)" display="inline" overflow="visible" visibility="visible" fill="#000000" fill-opacity="1" stroke="none" marker="none"/></g></g><text x="0" y="63.000001" fill="#000000" font-size="5px" font-weight="bold" font-family="'Helvetica Neue', Helvetica, Arial-Unicode, Arial, Sans-serif">Created by Chameleon Design</text><text x="0" y="68.000001" fill="#000000" font-size="5px" font-weight="bold" font-family="'Helvetica Neue', Helvetica, Arial-Unicode, Arial, Sans-serif">from the Noun Project</text></svg>