<svg xmlns="http://www.w3.org/2000/svg" xmlns:xlink="http://www.w3.org/1999/xlink" version="1.1" x="0px" y="0px" viewBox="0 0 66 82.5" enable-background="new 0 0 66 66" xml:space="preserve"><g><path d="M47.6,21.9V9c0-0.3-0.1-0.6-0.4-0.9l-8.6-6.8c-0.2-0.2-0.4-0.2-0.7-0.2H10.3c-0.6,0-1,0.4-1,1v20.3l-8,7.6   C1.1,30.2,1,30.5,1,30.7v33.1c0,0.6,0.4,1,1,1h53.1c0.6,0,1-0.4,1-1V30.7c0-0.3-0.1-0.5-0.3-0.7L47.6,21.9z M25.2,48.2L3,62.1V32.7   L25.2,48.2z M28.6,48.5l23.1,14.4H5.5L28.6,48.5z M31.9,48.2l22.2-15.5v29.4L31.9,48.2z M53.6,30.6l-6,4.2V24.7L53.6,30.6z M43.9,8   L39,8.2l0-4.1L43.9,8z M37,3.1l0,6.2c0,0.3,0.1,0.5,0.3,0.7c0.2,0.2,0.4,0.3,0.7,0.3c0,0,0,0,0,0l7.5-0.3v26.2L30,47.1l-0.9-0.6   c-0.3-0.2-0.7-0.2-1.1,0l-0.9,0.6L11.3,36V3.1H37z M9.3,34.6l-5.8-4l5.8-5.5V34.6z"/><path d="M15.3,15.6h7.6c0.6,0,1-0.4,1-1V8c0-0.6-0.4-1-1-1h-7.6c-0.6,0-1,0.4-1,1v6.6C14.3,15.2,14.7,15.6,15.3,15.6z M16.3,9h5.6   v4.6h-5.6V9z"/><path d="M15.5,21.8c0,0.6,0.4,1,1,1h15c0.6,0,1-0.4,1-1s-0.4-1-1-1h-15C16,20.8,15.5,21.3,15.5,21.8z"/><path d="M15.5,27.4c0,0.6,0.4,1,1,1h23.3c0.6,0,1-0.4,1-1s-0.4-1-1-1H16.5C16,26.4,15.5,26.9,15.5,27.4z"/><path d="M39.8,32H16.5c-0.6,0-1,0.4-1,1s0.4,1,1,1h23.3c0.6,0,1-0.4,1-1S40.4,32,39.8,32z"/><path d="M61.3,21.7c-2,0-3.7,1.7-3.7,3.7V56c0,0.1,0,0.3,0.1,0.4l2.8,6c0.2,0.4,0.5,0.6,0.9,0.6c0,0,0,0,0,0c0.4,0,0.7-0.2,0.9-0.6   l2.7-6C65,56.2,65,56.1,65,56V25.5C65,23.4,63.3,21.7,61.3,21.7z M61.3,23.7c0.9,0,1.7,0.8,1.7,1.7v2h-3.4v-2   C59.6,24.5,60.3,23.7,61.3,23.7z M59.6,32v-2.5H63V32H59.6z M63,34v18.7h-3.4V34H63z M61.3,59.5l-1.8-3.8v-1H63v1L61.3,59.5z"/></g><text x="0" y="81" fill="#000000" font-size="5px" font-weight="bold" font-family="'Helvetica Neue', Helvetica, Arial-Unicode, Arial, Sans-serif">Created by ProSymbols</text><text x="0" y="86" fill="#000000" font-size="5px" font-weight="bold" font-family="'Helvetica Neue', Helvetica, Arial-Unicode, Arial, Sans-serif">from the Noun Project</text></svg>