<svg xmlns="http://www.w3.org/2000/svg" xmlns:xlink="http://www.w3.org/1999/xlink" version="1.1" x="0px" y="0px" viewBox="0 0 64 80" style="enable-background:new 0 0 64 64;" xml:space="preserve"><g><path d="M61.5,43.8c-0.8-0.1-1.7,0.1-2.5,0.4c-4.7,1.7-9.1,3.7-13.8,5.4c-0.2,0.1-0.5,0.2-0.6,0.4c-1.2,1.4-2.8,2-4.6,2   c-2.9,0-5.8,0.1-8.7,0.2c-2,0-3.9,0.1-5.9,0.1c-0.5,0-1.1-0.5-1.2-1.1c0-0.6,0.4-0.8,0.9-0.8c0.2,0,0.4,0,0.6,0   c2.4-0.1,4.9-0.1,7.3-0.2c2.6-0.1,5.2-0.1,7.7-0.2c1.8-0.1,3-1.4,3-3.1c0-1.9-1.4-3.2-3.4-3.2c-1,0-2,0-3.1-0.1   c-0.8,0-1.7-0.1-2.5-0.2c-1.9,0-3.8,0-5.6-0.6c-0.9-0.3-1.6-0.7-2.3-1.2c-1.1-0.8-2.1-1.8-3.3-2.5c-1.6-0.9-3.5-1.3-5.3-1.4   c-1.8-0.1-3.7-0.1-5.5-0.1c0-0.1,0-0.2,0-0.2c0-1.2-0.6-1.7-1.8-1.7c-2.5,0.1-7.1,0.2-9.2,0.2c-0.6,0-1,0.5-1,1.1   c0.1,1.3,0.2,2.6,0.4,3.9c0.9,6.1,3,11.5,6.3,16.6c0.2,0.2,0.5,0.4,0.8,0.5c1.1,0,2.2,0,3.3-0.1c1.1,0,1.7-0.6,1.6-1.7   c0-0.3,0-0.3,0-0.7l0,0c2.4,0.7,9.7,3.7,14.3,4.9c3.8,1,7.5,0.7,11.3-0.9c10.8-4.7,13-6.6,23-11.5c0.4-0.2,0.7-0.6,1-0.9   C63.6,45.7,63,44,61.5,43.8z"/><g><path d="M61,5.8c-1-1.3-2.4-2.2-4-2.5c-0.3-0.1-0.7-0.1-1-0.1c-3.1,0-5.6,2.2-6.1,5.2c-0.2,1.4,0,2.9,0.7,4.1    c-0.1,0.1-0.1,0.2-0.2,0.3c-3.2,3.7-6.4,7.4-9.9,11.5c-0.1,0.1-0.2,0.2-0.3,0.3c-0.6-0.3-1.2-0.5-1.8-0.6c-1.2-0.2-2.5,0-3.6,0.5    c0,0-0.1-0.1-0.1-0.1c-1.8-2-3.6-3.9-5.4-5.7c0,0,0,0-0.1-0.1c0.3-0.6,0.6-1.3,0.7-2c0.3-1.6-0.1-3.3-1.1-4.6    c-1-1.3-2.4-2.2-4-2.5c-0.3-0.1-0.7-0.1-1-0.1c-3.1,0-5.6,2.2-6.1,5.2c-0.2,0.9-0.1,1.8,0.2,2.7c0.2,0.8,0.6,1.6,1.2,2.3    c0.9,1.1,2.3,1.9,3.8,2.2c1.3,0.2,2.7,0,3.9-0.6c1,1,1.9,2,2.8,3c0.8,0.9,1.7,1.8,2.5,2.7c0,0,0.1,0.1,0.1,0.1    c-0.4,0.7-0.7,1.5-0.9,2.3c-0.3,1.6,0.1,3.3,1.1,4.6c1,1.3,2.4,2.2,4,2.5c0.3,0.1,0.7,0.1,1,0.1c3.1,0,5.6-2.2,6.1-5.2    c0.2-1.4,0-2.8-0.7-4.1c3.3-3.9,6.8-8,10.4-12.1l0,0c0.6,0.3,1.2,0.5,1.8,0.6c0.3,0.1,0.7,0.1,1,0.1c2,0,3.8-0.9,5-2.5    c0.6-0.8,0.9-1.6,1.1-2.5c0-0.1,0-0.1,0-0.2C62.4,8.7,62,7.1,61,5.8z M52.6,8.9C52.8,7.2,54.4,6,56,6c0.2,0,0.3,0,0.5,0    c1.9,0.3,3.2,2,2.9,3.9c-0.3,1.7-1.7,3-3.4,3c-0.1,0-0.3,0-0.5,0c-0.9-0.1-1.8-0.6-2.3-1.4C52.7,10.7,52.4,9.8,52.6,8.9z     M33.9,29.4c0.3-1.6,1.8-2.9,3.5-2.9c0.2,0,0.4,0,0.5,0c1.9,0.3,3.2,2,2.9,3.9c-0.3,1.7-1.7,3-3.4,3c-0.2,0-0.3,0-0.5,0    c-0.9-0.1-1.8-0.6-2.3-1.4C34,31.3,33.7,30.4,33.9,29.4z M23.3,18.8c-0.9-0.1-1.8-0.6-2.3-1.4c-0.6-0.8-0.8-1.7-0.7-2.6    c0.3-1.6,1.8-2.9,3.5-2.9c0.2,0,0.3,0,0.5,0c1.9,0.3,3.2,2,2.9,3.9c-0.3,1.7-1.7,3-3.4,3C23.6,18.9,23.5,18.9,23.3,18.8z"/></g></g><text x="0" y="79" fill="#000000" font-size="5px" font-weight="bold" font-family="'Helvetica Neue', Helvetica, Arial-Unicode, Arial, Sans-serif">Created by Delwar Hossain</text><text x="0" y="84" fill="#000000" font-size="5px" font-weight="bold" font-family="'Helvetica Neue', Helvetica, Arial-Unicode, Arial, Sans-serif">from the Noun Project</text></svg>