<svg xmlns="http://www.w3.org/2000/svg" xmlns:xlink="http://www.w3.org/1999/xlink" xml:space="preserve" version="1.1" style="shape-rendering:geometricPrecision;text-rendering:geometricPrecision;image-rendering:optimizeQuality;" viewBox="0 0 333 416.25" x="0px" y="0px" fill-rule="evenodd" clip-rule="evenodd"><defs><style type="text/css">
   
    .fil0 {fill:black}
    .fil1 {fill:black;fill-rule:nonzero}
   
  </style></defs><g><rect class="fil0" transform="matrix(0.48503 -0.486727 0.486727 0.48503 213.54 250.134)" width="78.9921" height="163.197" rx="22" ry="22"/><path class="fil1" d="M180 189c-2,3 -7,3 -9,0 -3,-3 -3,-7 0,-10 8,-7 14,-15 18,-24 4,-9 6,-19 6,-29 0,-13 -3,-25 -9,-35 -6,-11 -15,-20 -26,-26 -3,-2 -4,-6 -2,-10 2,-3 6,-4 10,-2 12,8 23,18 30,31 7,13 11,27 11,42 0,12 -3,24 -7,35 -5,11 -12,20 -22,28zm-56 -186c34,0 64,14 87,36 22,22 36,53 36,87 0,30 -12,58 -30,80l16 15 3 -4 0 0 0 0 0 0c5,-4 10,-6 16,-6 5,0 11,2 15,6l0 0 0 0 0 0 59 58c4,5 6,10 6,16 0,5 -2,11 -6,15l-18 18c-4,4 -9,6 -15,6 -6,0 -11,-2 -15,-6l-59 -58 0 0 0 0 0 0c-4,-5 -6,-10 -6,-16 0,-5 2,-11 6,-15l0 0 0 0 0 0 4 -4 -16 -15c-21,20 -51,33 -83,33 -34,0 -65,-14 -87,-36 -22,-23 -36,-53 -36,-87 0,-34 14,-65 36,-87 22,-22 53,-36 87,-36zm77 46c-20,-20 -47,-32 -77,-32 -30,0 -57,12 -77,32 -20,20 -32,47 -32,77 0,30 12,57 32,77 20,19 47,32 77,32 30,0 57,-13 77,-32l1 -2 0 0 1 0 0 0c18,-20 30,-46 30,-75 0,-30 -13,-57 -32,-77zm45 178l-17 17 0 0 0 0 0 0c-2,2 -2,4 -2,6 0,2 0,4 2,6l0 0 0 0 0 0 58 58c2,1 4,2 6,2 2,0 4,-1 6,-2l17 -17c1,-2 2,-4 2,-6 0,-2 -1,-4 -2,-6l-58 -58 0 0 0 0 0 0c-2,-1 -4,-2 -6,-2 -2,0 -4,1 -6,2l0 0 0 0 0 0z"/></g><text x="0" y="348" fill="#000000" font-size="5px" font-weight="bold" font-family="'Helvetica Neue', Helvetica, Arial-Unicode, Arial, Sans-serif">Created by Mas Bro Mellow</text><text x="0" y="353" fill="#000000" font-size="5px" font-weight="bold" font-family="'Helvetica Neue', Helvetica, Arial-Unicode, Arial, Sans-serif">from the Noun Project</text></svg>